<svg id="Layer_4" data-name="Layer 4" xmlns="http://www.w3.org/2000/svg" viewBox="0 0 288 288"><title>Artboard 1</title><path d="M201,43.14c11-11,18.2-5.73,25.14,2.24a170.24,170.24,0,0,0,13.36,13.41c7.53,6.92,13.93,13.9,2.17,25.14,11.16,10.32,21.3,19.87,31.65,29.19,7.72,7,7.49,13.17,0,20.42-17.15,16.63-34,33.57-50.71,50.65-6.81,7-12.48,7-19.39,0q-50.91-51.39-102.3-102.3C94,75,93.66,69.36,100.69,62.48c17.08-16.71,34-33.56,50.65-50.71,7.17-7.4,13.38-8,20.42-.19C181.1,21.93,190.68,32,201,43.14Z"/><path d="M122.31,122.23l39.59,39.85c-2.23,2.46-5,5.77-8,8.81q-47.79,47.88-95.66,95.68c-15.46,15.42-24.1,15.26-39.78-.49-15.06-15.12-15.23-24-.52-38.83C52.51,192.39,87.17,157.57,122.31,122.23Z"/></svg>