<?xml version="1.0" encoding="iso-8859-1"?>
<!-- Generator: Adobe Illustrator 20.1.0, SVG Export Plug-In . SVG Version: 6.00 Build 0)  -->
<svg version="1.1" id="Layer_4" xmlns="http://www.w3.org/2000/svg" xmlns:xlink="http://www.w3.org/1999/xlink" x="0px" y="0px"
	 viewBox="0 0 288 288" style="enable-background:new 0 0 288 288;" xml:space="preserve">
<g>
	<path style="fill:#7AB55C;" d="M200.976,43.14c11.024-11,18.201-5.735,25.138,2.243c4.131,4.751,8.717,9.138,13.358,13.406
		c7.529,6.924,13.935,13.895,2.172,25.141c11.162,10.316,21.298,19.871,31.648,29.189c7.724,6.954,7.49,13.171,0.009,20.422
		c-17.154,16.627-34.004,33.575-50.71,50.653c-6.808,6.96-12.481,6.95-19.389-0.023c-33.939-34.259-68.039-68.361-102.3-102.299
		c-6.907-6.842-7.243-12.513-0.218-19.388c17.075-16.71,34.022-33.56,50.653-50.711c7.173-7.397,13.385-7.986,20.423-0.19
		C181.099,21.925,190.684,32.046,200.976,43.14z"/>
	<path style="fill:#7AB55C;" d="M122.312,122.232c13.806,13.896,26.121,26.291,39.595,39.852c-2.228,2.457-4.992,5.771-8.029,8.813
		c-31.86,31.921-63.738,63.824-95.665,95.678c-15.456,15.421-24.096,15.261-39.785-0.489c-15.057-15.116-15.227-24.015-0.522-38.829
		C52.514,192.389,87.174,157.571,122.312,122.232z"/>
</g>
</svg>
